# xmcd
#
# Track frame offsets:
# 150
# 9044
# 19147
# 28809
# 37644
# 46694
# 58651
# 69406
# 77856
# 85735
# 93925
# 103791
# 113534
# 123708
# 134353
# 146074
# 160093
# 175601
# 188086
# 201784
# 214884
# 231623
# 244335
# 257711
# 270182
# 280524
# 297235
# 307933
# 318427
# 329872
# 337990
#
# Disc length: 4677 seconds
#
#
# Revision: 0
# Processed by: cddbd v1.5.2PL0 Copyright (c) Steve Scherf et al.
# Submitted via: FreeRIP 2.951 
#
DISCID=af12431f
DTITLE=Cash Johnny - The Country Boy
DYEAR=1900
DGENRE=Country
TTITLE0=Remember Me
TTITLE1=I Was There When It Happened
TTITLE2=Born To Loose
TTITLE3=Live Goes On
TTITLE4=Blue Train
TTITLE5=Goodnight Irene
TTITLE6=Fools Hall Of Fame
TTITLE7=I Forgot To Remember To Forgot
TTITLE8=I Can´t Help It
TTITLE9=Always Alone
TTITLE10=I Could never Be Ashamed Of You
TTITLE11=The Story Of A Broken Heart
TTITLE12=You Win Again
TTITLE13=I Thought You´d Like To Know
TTITLE14=Ring Of Fire
TTITLE15=Orange Blossom Special
TTITLE16=The Night They Drove Old Dixie Down
TTITLE17=Jackson
TTITLE18=Don´t Take Your Guns To Town
TTITLE19=I walk The Line
TTITLE20=A Boy Named Sue
TTITLE21=San Quentin
TTITLE22=If I Were A CArpenter
TTITLE23=Folsom Prison Blues
TTITLE24=Kate
TTITLE25=Riders In The Sky
TTITLE26=Daddy Sang Bass
TTITLE27=Bonanza
TTITLE28=In Them Old Cottonfields Back Home
TTITLE29=Five Feet High And Rising
TTITLE30=Man In Black
EXTD=
EXTT0=
EXTT1=
EXTT2=
EXTT3=
EXTT4=
EXTT5=
EXTT6=
EXTT7=
EXTT8=
EXTT9=
EXTT10=
EXTT11=
EXTT12=
EXTT13=
EXTT14=
EXTT15=
EXTT16=
EXTT17=
EXTT18=
EXTT19=
EXTT20=
EXTT21=
EXTT22=
EXTT23=
EXTT24=
EXTT25=
EXTT26=
EXTT27=
EXTT28=
EXTT29=
EXTT30=
PLAYORDER=
